<svg xmlns:dc="http://purl.org/dc/elements/1.1/" xmlns:cc="http://creativecommons.org/ns#" xmlns:rdf="http://www.w3.org/1999/02/22-rdf-syntax-ns#" xmlns:svg="http://www.w3.org/2000/svg" xmlns="http://www.w3.org/2000/svg" xmlns:sodipodi="http://sodipodi.sourceforge.net/DTD/sodipodi-0.dtd" xmlns:inkscape="http://www.inkscape.org/namespaces/inkscape" version="1.1" x="0px" y="0px" viewBox="0 0 100 125"><g transform="translate(0,-952.36218)"><path style="text-indent:0;text-transform:none;direction:ltr;block-progression:tb;baseline-shift:baseline;color:#000000;enable-background:accumulate;" d="m 31.248069,966.39698 c -5.4718,0 -10.9351,2.16591 -15.0625,6.5 -8.2548999,8.66804 -8.2443999,22.54494 0,31.21872 l 31.625,33.2813 a 3.0003,3.0003 0 0 0 4.3438,0 c 10.5534,-11.0817 21.1028,-22.1682 31.6562,-33.25 8.2548,-8.6682 8.2548,-22.5506 0,-31.21877 -8.2549,-8.66814 -21.9013,-8.66834 -30.1562,0 l -3.6563,3.84375 -3.6875,-3.875 c -4.1275,-4.33408 -9.5907,-6.5 -15.0625,-6.5 z m 0,5.875 c 3.8539,0 7.7003,1.58049 10.7188,4.75 l 5.875,6.15625 a 3.0003,3.0003 0 0 0 4.3437,0 l 5.8438,-6.125 c 6.0368,-6.33916 15.4007,-6.33902 21.4375,0 6.0367,6.33903 6.0367,16.62971 0,22.96877 -9.8269,10.3189 -19.6419,20.6499 -29.4688,30.9687 l -29.4687,-30.99997 c -6.0336,-6.34779 -6.0368,-16.62989 0,-22.96875 3.0183,-3.1695 6.8648,-4.75 10.7187,-4.75 z" fill="#000000" fill-opacity="1" stroke="none" marker="none" visibility="visible" display="inline" overflow="visible"/></g><text x="0" y="115" fill="#000000" font-size="5px" font-weight="bold" font-family="'Helvetica Neue', Helvetica, Arial-Unicode, Arial, Sans-serif">Created by il Capitano</text><text x="0" y="120" fill="#000000" font-size="5px" font-weight="bold" font-family="'Helvetica Neue', Helvetica, Arial-Unicode, Arial, Sans-serif">from the Noun Project</text></svg>